<svg width="56" height="56" viewBox="0 0 56 56" fill="none" xmlns="http://www.w3.org/2000/svg">
<g clip-path="url(#clip0_1_279)">
<path d="M42.9109 24.7265C42.9109 22.9536 41.4686 21.5115 39.6958 21.5115H33.7871C35.2227 19.8979 36.1609 18.0605 36.3421 16.4121C36.4528 15.4053 36.1418 14.406 35.4885 13.6702C34.8914 12.9976 34.0749 12.6228 33.1894 12.6146C33.1791 12.6145 33.1688 12.6145 33.1587 12.6145C32.3021 12.6145 31.4982 12.9444 30.8915 13.5455C30.2847 14.1467 29.9489 14.9477 29.945 15.8025C29.9138 15.9896 29.5846 16.6348 28.7791 17.4009C28.1195 18.0282 26.9803 18.8907 25.2982 19.4368C24.6387 19.6509 24.0359 20.0452 23.5068 20.6087C23.229 20.9043 22.8132 21.3124 22.2984 21.7222C22.0457 21.5883 21.7584 21.5117 21.4531 21.5117H15.8414C14.8422 21.5117 14.0293 22.3246 14.0293 23.3238V38.2883C14.0293 39.2876 14.8422 40.1004 15.8414 40.1004H21.4531C22.1343 40.1004 22.7283 39.7222 23.0379 39.1652H37.3576C38.8725 39.1652 40.105 37.9327 40.105 36.4178C40.105 35.9084 39.9657 35.4311 39.7231 35.0216C40.5125 34.5384 41.0402 33.668 41.0402 32.6766C41.0402 32.1673 40.901 31.6899 40.6584 31.2804C41.4478 30.7972 41.9755 29.9268 41.9755 28.9354C41.9755 28.3621 41.799 27.8292 41.4974 27.3882C42.3498 26.8093 42.9109 25.8321 42.9109 24.7265ZM39.6958 26.1878H39.2281C38.7439 26.1878 38.3512 26.5804 38.3512 27.0647C38.3512 27.5489 38.7438 27.9416 39.2281 27.9416C39.7761 27.9416 40.2219 28.3874 40.2219 28.9353C40.2219 29.4833 39.7761 29.9291 39.2281 29.9291H38.2928C37.8086 29.9291 37.416 30.3217 37.416 30.806C37.416 31.2902 37.8085 31.6828 38.2928 31.6828C38.8408 31.6828 39.2866 32.1286 39.2866 32.6766C39.2866 33.2246 38.8408 33.6704 38.2928 33.6704H37.3576C36.8734 33.6704 36.4807 34.0629 36.4807 34.5473C36.4807 35.0315 36.8733 35.4241 37.3576 35.4241C37.9055 35.4241 38.3513 35.8699 38.3513 36.4179C38.3513 36.9659 37.9055 37.4117 37.3576 37.4117H23.2653V28.9357C23.2653 28.4515 22.8727 28.0588 22.3884 28.0588C21.9041 28.0588 21.5115 28.4514 21.5115 28.9357V38.2884C21.5115 38.3207 21.4854 38.3468 21.4531 38.3468H15.8414C15.8092 38.3468 15.783 38.3207 15.783 38.2884V23.3235C15.783 23.2913 15.8092 23.2651 15.8414 23.2651H21.4531C21.4854 23.2651 21.5115 23.2913 21.5115 23.3235V25.1942C21.5115 25.6784 21.9041 26.071 22.3884 26.071C22.8727 26.071 23.2653 25.6785 23.2653 25.1942V23.3235C23.2653 23.281 23.2618 23.2393 23.2588 23.1975C23.9163 22.6886 24.442 22.1741 24.785 21.809C25.1095 21.4633 25.4643 21.2264 25.8396 21.1046C27.9035 20.4346 29.2925 19.3557 30.0941 18.5687C31.0988 17.5822 31.6985 16.5539 31.6985 15.8177C31.6985 15.4287 31.8502 15.0642 32.1257 14.7912C32.4046 14.5148 32.774 14.3688 33.1731 14.3682C33.6646 14.3728 33.9901 14.6243 34.1768 14.8345C34.4969 15.1949 34.6544 15.7131 34.5987 16.2205C34.4072 17.9627 33.0138 20.1163 31.049 21.7068C30.7604 21.9406 30.6503 22.3308 30.7742 22.6809C30.8981 23.0311 31.2293 23.2651 31.6007 23.2651H39.6956C40.5014 23.2651 41.1569 23.9206 41.1569 24.7265C41.1569 25.5323 40.5015 26.1878 39.6958 26.1878Z" fill="#2B2831"/>
<path d="M18.6473 34.5959C18.1631 34.5959 17.7659 34.9932 17.7659 35.4774C17.7659 35.9616 18.1631 36.3589 18.6473 36.3589C19.1315 36.3589 19.5288 35.9616 19.5288 35.4774C19.5289 34.9933 19.1316 34.5959 18.6473 34.5959Z" fill="#2B2831"/>
<path d="M54.4368 28.0004L55.9431 24.0145C56.0528 23.7245 56.0011 23.3983 55.8072 23.1562L53.1429 19.8308L53.3437 15.5745C53.3584 15.2649 53.2083 14.9704 52.9493 14.8003L49.3879 12.4609L48.2637 8.35079C48.1819 8.05176 47.9483 7.81813 47.6493 7.73643L43.5392 6.61228L41.1998 3.05092C41.0296 2.79181 40.7352 2.6424 40.4257 2.65651L36.1693 2.85732L32.8439 0.193057C32.602 -0.00075575 32.2757 -0.0524901 31.9856 0.0571036L27.9997 1.56342L24.0139 0.057213C23.7238 -0.0524901 23.3976 -0.000755763 23.1557 0.193166L19.8302 2.85743L15.5739 2.65662C15.2629 2.64196 14.9698 2.79203 14.7998 3.05103L12.4604 6.61249L8.35035 7.73665C8.05132 7.81846 7.8177 8.05209 7.73599 8.35101L6.61184 12.4611L3.05037 14.8004C2.79126 14.9706 2.6413 15.265 2.65596 15.5746L2.85677 19.8309L0.192508 23.1563C-0.00130447 23.3983 -0.0530388 23.7245 0.0565549 24.0146L1.56276 28.0004L0.0564455 31.9863C-0.0532576 32.2762 -0.00152322 32.6025 0.192399 32.8446L2.85666 36.17L2.65585 40.4263C2.6412 40.7359 2.79126 41.0304 3.05026 41.2005L6.61173 43.5399L7.73588 47.65C7.8177 47.949 8.05132 48.1827 8.35024 48.2644L12.4603 49.3885L14.7996 52.95C14.9698 53.2091 15.2648 53.3581 15.5738 53.3444L19.8301 53.1436L23.1556 55.8078C23.3975 56.0018 23.7239 56.0535 24.0138 55.9438L27.9998 54.4375L31.9857 55.9438C32.0864 55.9817 32.1913 56.0003 32.2956 56.0003C32.492 56.0003 32.686 55.9344 32.8439 55.8078L36.1693 53.1436L40.4257 53.3444C40.7362 53.3582 41.0296 53.209 41.1998 52.95L43.5392 49.3885L47.6493 48.2644C47.9484 48.1825 48.182 47.9489 48.2637 47.65L49.3879 43.5399L52.9493 41.2005C53.2084 41.0303 53.3584 40.7359 53.3437 40.4263L53.1429 36.17L55.8072 32.8446C56.001 32.6026 56.0527 32.2764 55.9431 31.9863L54.4368 28.0004ZM52.6793 28.3104L54.1259 32.1384L51.5671 35.3321C51.4336 35.4987 51.3655 35.7083 51.3755 35.9216L51.5685 40.0093L48.1482 42.2559C47.9698 42.3731 47.8401 42.5515 47.7838 42.7575L46.7041 46.7048L42.7569 47.7844C42.5509 47.8407 42.3727 47.9704 42.2553 48.1489L40.0086 51.5691L35.9209 51.3762C35.7076 51.3663 35.498 51.4343 35.3314 51.5678L32.1378 54.1265L28.3098 52.6799C28.2099 52.6422 28.1048 52.6234 27.9998 52.6234C27.8948 52.6234 27.7897 52.6423 27.6898 52.6799L23.8618 54.1265L20.6682 51.5678C20.5016 51.4343 20.2916 51.3663 20.0786 51.3762L15.991 51.5691L13.7443 48.1489C13.6271 47.9705 13.4488 47.8407 13.2427 47.7844L9.29546 46.7048L8.21582 42.7575C8.15949 42.5516 8.02988 42.3733 7.85138 42.2559L4.43112 40.0093L4.62405 35.9216C4.63412 35.7082 4.56598 35.4987 4.43243 35.3321L1.87371 32.1384L3.32041 28.3104C3.39588 28.1107 3.39588 27.8902 3.32041 27.6905L1.87371 23.8625L4.43243 20.6688C4.56598 20.5022 4.63412 20.2926 4.62405 20.0793L4.43112 15.9916L7.85138 13.7449C8.02977 13.6278 8.15949 13.4494 8.21582 13.2434L9.29546 9.29612L13.2427 8.21648C13.4486 8.16015 13.6269 8.03054 13.7443 7.85204L15.991 4.43178L20.0786 4.62471C20.2917 4.63467 20.5016 4.56664 20.6682 4.43309L23.8618 1.87437L27.6898 3.32107C27.8896 3.39654 28.11 3.39654 28.3098 3.32107L32.1378 1.87437L35.3314 4.43309C35.498 4.56674 35.7078 4.63478 35.9209 4.62471L40.0086 4.43178L42.2553 7.85204C42.3724 8.03043 42.5508 8.16015 42.7569 8.21648L46.7041 9.29612L47.7838 13.2434C47.8401 13.4493 47.9697 13.6276 48.1482 13.7449L51.5685 15.9916L51.3755 20.0793C51.3655 20.2927 51.4336 20.5022 51.5671 20.6688L54.1259 23.8625L52.6792 27.6905C52.6038 27.8903 52.6038 28.1107 52.6793 28.3104Z" fill="#2B2831"/>
<path d="M44.4756 12.8598C44.2574 12.6222 44.0311 12.386 43.8026 12.1576C43.5741 11.9292 43.338 11.7028 43.1004 11.4846C42.7438 11.1571 42.1891 11.1807 41.8615 11.5375C41.5341 11.8942 41.5577 12.4489 41.9145 12.7764C42.1336 12.9777 42.3517 13.1866 42.5625 13.3975C42.7733 13.6082 42.9823 13.8264 43.1837 14.0456C43.3566 14.234 43.5928 14.3294 43.8299 14.3294C44.0417 14.3294 44.2542 14.2531 44.4226 14.0985C44.7793 13.7712 44.8031 13.2164 44.4756 12.8598Z" fill="#2B2831"/>
<path d="M39.9866 9.0918C35.7582 6.3979 30.6672 5.20068 25.652 5.71988C20.5633 6.24707 15.7651 8.53322 12.1408 12.1574C8.15224 16.1459 5.82999 21.4445 5.60183 27.077C5.3751 32.6763 7.22966 38.1127 10.8241 42.3845C10.9974 42.5905 11.2455 42.6967 11.4955 42.6967C11.6948 42.6967 11.8952 42.6291 12.0596 42.4909C12.43 42.1791 12.4777 41.6259 12.166 41.2555C8.85399 37.3192 7.14511 32.3092 7.35402 27.1481C7.56424 21.9569 9.70449 17.0736 13.3807 13.3975C16.721 10.057 21.1433 7.94993 25.8326 7.46419C30.4564 6.98513 35.1482 8.08862 39.0442 10.5708C39.4527 10.831 39.9946 10.7109 40.2548 10.3025C40.5151 9.89396 40.3949 9.35201 39.9866 9.0918Z" fill="#2B2831"/>
<path d="M46.8683 15.9735C46.6081 15.565 46.0659 15.4449 45.6577 15.7051C45.2492 15.9653 45.1292 16.5073 45.3894 16.9156C47.8715 20.8118 48.9748 25.5038 48.496 30.1273C48.0102 34.8166 45.9031 39.2387 42.5628 42.5793C38.8866 46.2554 34.0032 48.3957 28.8122 48.6059C23.652 48.8157 18.6409 47.1061 14.7048 43.7942C14.3343 43.4824 13.7812 43.5301 13.4694 43.9006C13.1575 44.2711 13.2052 44.8242 13.5758 45.136C17.614 48.5338 22.6923 50.3769 27.9658 50.3768C28.2709 50.3768 28.5771 50.3706 28.8834 50.3582C34.5159 50.1302 39.8143 47.8079 43.803 43.8194C47.4272 40.1951 49.7135 35.3967 50.2405 30.3081C50.7598 25.2926 49.5622 20.2018 46.8683 15.9735Z" fill="#2B2831"/>
</g>
<defs>
<clipPath id="clip0_1_279">
<rect width="56" height="56" fill="white"/>
</clipPath>
</defs>
</svg>
