<svg width="58" height="47" viewBox="0 0 58 47" fill="none" xmlns="http://www.w3.org/2000/svg">
<path fill-rule="evenodd" clip-rule="evenodd" d="M11.1644 36.6673C9.83973 36.6673 8.63583 36.1252 7.76334 35.2532C6.89086 34.3807 6.3493 33.1768 6.3493 31.8517V19.1763C6.3493 16.8584 7.28905 14.7594 8.80816 13.2408C10.3273 11.7217 12.4262 10.7819 14.7437 10.7819C17.0617 10.7819 19.1606 11.7217 20.6792 13.2408C22.1984 14.7599 23.1381 16.8584 23.1381 19.1763C23.1381 21.4943 22.1984 23.5928 20.6792 25.1124C19.1601 26.6315 17.0617 27.5712 14.7437 27.5712C14.3863 27.5712 14.0244 27.5467 13.6601 27.4995C13.2923 27.4519 12.9364 27.3817 12.5942 27.2914L12.2048 27.1883V26.7876V22.1095V21.129L13.0184 21.6774C13.2653 21.8439 13.5349 21.9745 13.8187 22.0609C14.0927 22.1444 14.3887 22.1895 14.7 22.1895C15.5327 22.1895 16.2869 21.8527 16.8319 21.3082C17.3764 20.7632 17.7132 20.0095 17.7132 19.1763C17.7132 18.3436 17.3764 17.5895 16.8319 17.045C16.2869 16.5005 15.5327 16.1636 14.7 16.1636C13.8673 16.1636 13.1136 16.5005 12.5681 17.045C12.0236 17.59 11.6868 18.3441 11.6868 19.1763V36.1453V36.6673H11.1644ZM8.5013 34.5153C9.06839 35.0823 9.81371 35.4712 10.643 35.5871V19.1763C10.643 18.0579 11.0971 17.044 11.8312 16.3095L11.8331 16.3075C12.5672 15.5735 13.581 15.1193 14.7 15.1193C15.8185 15.1193 16.8324 15.5735 17.5669 16.3075L17.5688 16.3095C18.3029 17.0435 18.757 18.0574 18.757 19.1763C18.757 20.2953 18.3029 21.3087 17.5688 22.0427L17.5669 22.0447C16.8329 22.7787 15.819 23.2329 14.7 23.2329C14.293 23.2329 13.8953 23.1705 13.5167 23.0551C13.4259 23.0276 13.336 22.9967 13.2482 22.9628V26.3752C13.4284 26.4125 13.609 26.4434 13.7902 26.467C14.0922 26.5063 14.4103 26.5264 14.7432 26.5264C16.773 26.5264 18.6112 25.7035 19.9408 24.3734C21.2709 23.0433 22.0938 21.2056 22.0938 19.1754C22.0938 17.1451 21.2709 15.3074 19.9408 13.9778C18.6107 12.6477 16.773 11.8248 14.7432 11.8248C12.7135 11.8248 10.8757 12.6477 9.54563 13.9778C8.21554 15.3078 7.39265 17.1456 7.39265 19.1754V31.8512C7.39314 32.8886 7.81735 33.8313 8.5013 34.5153ZM42.5419 17.724H56.4781H57V18.2459V22.6633V23.1852H56.4781H53.4227V28.5738V29.0957H52.9007H46.1192H45.5973V28.5738V23.1852H42.5419H42.02V22.6633V18.2459V17.724H42.5419ZM55.9562 18.7678H43.0638V22.1414H46.1192H46.6412V22.6633V28.0519H52.3788V22.6633V22.1414H52.9007H55.9562V18.7678ZM48.7303 7.72799C46.5106 6.52999 43.5504 5.14049 40.1061 4.0343C36.5308 2.88588 32.4315 2.04433 28.0976 2.04433C20.8157 2.04433 13.8427 3.94347 8.9481 8.00737C4.72659 11.5125 2.04384 16.6478 2.04384 23.5888C2.04384 30.578 4.58666 35.6941 8.67805 39.1556C13.3626 43.1188 20.0901 44.9414 27.3778 44.9414C32.2469 44.9414 36.6849 43.9908 40.386 42.7633C43.9294 41.5879 46.8002 40.1592 48.7303 39.0652V31.5124C47.0963 32.431 44.9085 33.4974 42.4393 34.2761C40.3659 34.9296 38.0921 35.3833 35.7727 35.3833C29.9864 35.3833 26.3447 32.3672 24.7461 28.4938C24.1225 26.9835 23.8132 25.3412 23.8117 23.6983C23.8103 22.0565 24.1166 20.4121 24.7235 18.897C26.2912 14.9828 29.8509 11.9141 35.291 11.8921C38.0538 11.8808 40.7758 12.4238 43.2229 13.1824C45.3032 13.8275 47.1886 14.6303 48.7303 15.38V7.72799ZM40.4243 3.043C36.7537 1.86414 32.5454 1 28.0976 1C20.5904 1 13.3788 2.97671 8.2833 7.20755C3.83005 10.9052 1 16.3055 1 23.5883C1 30.9153 3.68472 36.2951 8.0054 39.95C12.8912 44.0836 19.8578 45.9842 27.3778 45.9842C32.3633 45.9842 36.9147 45.0086 40.712 43.7492C44.5024 42.4918 47.5406 40.9506 49.511 39.815L49.7741 39.6633V39.3642V30.6109V29.6962L48.9871 30.1646C47.3595 31.1328 44.935 32.3971 42.1295 33.2814C40.1483 33.9059 37.9787 34.3395 35.7727 34.3395C30.4774 34.3395 27.1563 31.6071 25.7079 28.0981C25.1359 26.7125 24.8521 25.2057 24.8512 23.6978C24.8502 22.189 25.1315 20.6778 25.6898 19.2839C27.1117 15.734 30.3463 12.9511 35.2949 12.931C37.9365 12.9202 40.5554 13.4441 42.9165 14.1766C45.2895 14.9126 47.3992 15.8573 49.0156 16.6831L49.7741 17.0705V16.2206V7.41965V7.1123L49.5007 6.96304C47.2078 5.70758 44.0836 4.21842 40.4243 3.043Z" fill="#2B2831" stroke="#2B2831"/>
</svg>
