<svg width="56" height="56" viewBox="0 0 56 56" fill="none" xmlns="http://www.w3.org/2000/svg">
<g clip-path="url(#clip0_1_306)">
<path d="M37.3334 30.8C34.245 30.8 31.7334 33.3116 31.7334 36.4C31.7334 39.4885 34.245 42 37.3334 42C40.4218 42 42.9334 39.4885 42.9334 36.4C42.9334 33.3116 40.4218 30.8 37.3334 30.8ZM37.3334 40.1333C35.2744 40.1333 33.6001 38.4589 33.6001 36.4C33.6001 34.3411 35.2745 32.6668 37.3334 32.6668C39.3924 32.6668 41.0667 34.3412 41.0667 36.4C41.0668 38.459 39.3924 40.1333 37.3334 40.1333Z" fill="#2B2831"/>
<path d="M39.2001 40.1333V43.9899L37.8505 43.0901C37.5369 42.8801 37.1291 42.8801 36.8154 43.0901L35.4667 43.9899V40.1333H33.6001V45.7333C33.6001 46.0777 33.7895 46.3942 34.0938 46.5565C34.3962 46.7189 34.7658 46.7002 35.0514 46.5098L37.3334 44.9885L39.6154 46.5098C39.7713 46.6133 39.9524 46.6666 40.1334 46.6666C40.2846 46.6666 40.4358 46.6302 40.574 46.5565C40.8773 46.394 41.0668 46.0776 41.0668 45.7333V40.1333H39.2001Z" fill="#2B2831"/>
<path d="M33.6001 9.33325H21.4668V11.2H33.6001V9.33325Z" fill="#2B2831"/>
<path d="M42.9334 14.9333H13.0667V16.8001H42.9334V14.9333Z" fill="#2B2831"/>
<path d="M33.5999 20.5334H13.0667V22.4002H33.5999V20.5334Z" fill="#2B2831"/>
<path d="M42.9333 20.5334H37.3333V22.4002H42.9333V20.5334Z" fill="#2B2831"/>
<path d="M42.9334 26.1333H13.0667V28H42.9334V26.1333Z" fill="#2B2831"/>
<path d="M24.2667 31.7334H13.0667V33.6001H24.2667V31.7334Z" fill="#2B2831"/>
<path d="M17.7334 36.3999H13.0667V38.2666H17.7334V36.3999Z" fill="#2B2831"/>
<path d="M24.2668 36.3999H21.4668V38.2666H24.2668V36.3999Z" fill="#2B2831"/>
<path d="M51.3332 0C48.7601 0 46.6665 2.09344 46.6665 4.6667V6.53341C46.6665 7.04856 47.0837 7.4667 47.5998 7.4667H55.0665C55.5827 7.4667 55.9998 7.04856 55.9998 6.53341V4.6667C55.9999 2.09344 53.9065 0 51.3332 0ZM54.1332 5.6H48.5332V4.6667C48.5332 3.12298 49.7895 1.8667 51.3332 1.8667C52.8769 1.8667 54.1332 3.12298 54.1332 4.6667V5.6Z" fill="#2B2831"/>
<path d="M51.3334 0H12.1334C9.56023 0 7.4668 2.09344 7.4668 4.6667V49.4667H9.3335V4.6667C9.3335 3.12298 10.5898 1.8667 12.1335 1.8667H47.6021C47.015 2.64698 46.6669 3.6167 46.6669 4.6667V51.3334C46.6669 52.8771 45.4106 54.1334 43.8669 54.1334H8.40009V56H43.8668C46.4399 56 48.5335 53.9066 48.5335 51.3333V4.6667C48.5335 3.12298 49.7898 1.8667 51.3335 1.8667C51.8496 1.8667 52.2668 1.44856 52.2668 0.933406C52.2668 0.41825 51.8495 0 51.3334 0Z" fill="#2B2831"/>
<path d="M43.8667 54.1334C42.323 54.1334 41.0667 52.8772 41.0667 51.3334V49.4667C41.0667 48.9506 40.6495 48.5334 40.1334 48.5334H0.933297C0.418141 48.5334 0 48.9506 0 49.4667V51.3334C0 53.9067 2.09344 56.0001 4.6667 56.0001H43.8667C44.3828 56.0001 44.8 55.583 44.8 55.0669C44.8 54.5507 44.3828 54.1334 43.8667 54.1334ZM4.6667 54.1334C3.12298 54.1334 1.8667 52.8772 1.8667 51.3334V50.4001H39.2V51.3334C39.2 52.3834 39.5481 53.3532 40.1352 54.1334H4.6667Z" fill="#2B2831"/>
</g>
<defs>
<clipPath id="clip0_1_306">
<rect width="56" height="56" fill="white"/>
</clipPath>
</defs>
</svg>
