<svg width="56" height="56" viewBox="0 0 56 56" fill="none" xmlns="http://www.w3.org/2000/svg">
<path d="M40.1333 23.3333C31.3705 23.3333 24.2666 30.4372 24.2666 39.1999C24.2666 47.9627 31.3705 55.0666 40.1333 55.0666C48.896 55.0666 55.9999 47.9627 55.9999 39.1999C55.9904 30.4413 48.8919 23.3428 40.1333 23.3333ZM40.1333 53.1999C32.4014 53.1999 26.1333 46.9318 26.1333 39.1999C26.1333 31.468 32.4014 25.1999 40.1333 25.1999C47.8652 25.1999 54.1333 31.468 54.1333 39.1999C54.1246 46.9282 47.8615 53.1913 40.1333 53.1999Z" fill="#2B2831"/>
<path d="M41.0668 36.5719V30.8H39.2001V36.5719C38.4094 36.854 37.7873 37.476 37.5052 38.2667H33.6001V40.1334H37.5052C37.9368 41.362 39.1604 42.1295 40.4547 41.9832C41.749 41.8365 42.7698 40.8156 42.9166 39.5213C43.0629 38.2271 42.2954 37.0034 41.0668 36.5719ZM40.1334 40.1334C39.618 40.1334 39.2001 39.7155 39.2001 39.2001C39.2001 38.6846 39.618 38.2667 40.1334 38.2667C40.6489 38.2667 41.0668 38.6846 41.0668 39.2001C41.0668 39.7155 40.6489 40.1334 40.1334 40.1334Z" fill="#2B2831"/>
<path d="M28 38.2666H29.8667V40.1333H28V38.2666Z" fill="#2B2831"/>
<path d="M39.2 49.4666H41.0666V51.3332H39.2V49.4666Z" fill="#2B2831"/>
<path d="M50.3999 38.2666H52.2666V40.1333H50.3999V38.2666Z" fill="#2B2831"/>
<path d="M39.2 27.0667H41.0666V28.9333H39.2V27.0667Z" fill="#2B2831"/>
<path d="M1.86667 41.0667V14H44.8V22.4H46.6667V9.33335C46.6635 6.75711 44.5762 4.66987 42 4.66668H35.4667V3.73335C35.4667 2.18706 34.213 0.93335 32.6667 0.93335C31.1204 0.93335 29.8667 2.18706 29.8667 3.73335V4.66668H16.8V3.73335C16.8 2.18706 15.5463 0.93335 14 0.93335C12.4537 0.93335 11.2 2.18706 11.2 3.73335V4.66668H4.66667C2.09043 4.66987 0.00319011 6.75711 0 9.33335V41.0667C0.00319011 43.6429 2.09043 45.7302 4.66667 45.7333H23.3333V43.8667H4.66667C3.12038 43.8667 1.86667 42.613 1.86667 41.0667ZM31.7333 3.73335C31.7333 3.21792 32.1512 2.80002 32.6667 2.80002C33.1821 2.80002 33.6 3.21792 33.6 3.73335V7.46668C33.6 7.98211 33.1821 8.40002 32.6667 8.40002C32.1512 8.40002 31.7333 7.98211 31.7333 7.46668V3.73335ZM13.0667 3.73335C13.0667 3.21792 13.4846 2.80002 14 2.80002C14.5154 2.80002 14.9333 3.21792 14.9333 3.73335V7.46668C14.9333 7.98211 14.5154 8.40002 14 8.40002C13.4846 8.40002 13.0667 7.98211 13.0667 7.46668V3.73335ZM4.66667 6.53335H11.2V7.46668C11.2 9.01297 12.4537 10.2667 14 10.2667C15.5463 10.2667 16.8 9.01297 16.8 7.46668V6.53335H29.8667V7.46668C29.8667 9.01297 31.1204 10.2667 32.6667 10.2667C34.213 10.2667 35.4667 9.01297 35.4667 7.46668V6.53335H42C43.5463 6.53335 44.8 7.78706 44.8 9.33335V12.1333H1.86667V9.33335C1.86667 7.78706 3.12038 6.53335 4.66667 6.53335Z" fill="#2B2831"/>
<path d="M13.0668 21.4668C13.0668 20.4359 12.231 19.6001 11.2001 19.6001H7.46676C6.4359 19.6001 5.6001 20.4359 5.6001 21.4668V25.2001C5.6001 26.231 6.4359 27.0668 7.46676 27.0668H11.2001C12.231 27.0668 13.0668 26.231 13.0668 25.2001V21.4668ZM7.46676 25.2001V21.4668H11.2001V25.2001H7.46676Z" fill="#2B2831"/>
<path d="M22.4 21.4668C22.4 20.4359 21.5642 19.6001 20.5333 19.6001H16.8C15.7692 19.6001 14.9333 20.4359 14.9333 21.4668V25.2001C14.9333 26.231 15.7692 27.0668 16.8 27.0668H20.5333C21.5642 27.0668 22.4 26.231 22.4 25.2001V21.4668ZM16.8 25.2001V21.4668H20.5333V25.2001H16.8Z" fill="#2B2831"/>
<path d="M31.7333 24.2668V21.4668C31.7333 20.4359 30.8975 19.6001 29.8666 19.6001H26.1333C25.1024 19.6001 24.2666 20.4359 24.2666 21.4668V25.2001C24.2666 26.231 25.1024 27.0668 26.1333 27.0668H27.9999V25.2001H26.1333V21.4668H29.8666V24.2668H31.7333Z" fill="#2B2831"/>
<path d="M11.2001 30.8H7.46676C6.4359 30.8 5.6001 31.6359 5.6001 32.6667V36.4C5.6001 37.4309 6.4359 38.2667 7.46676 38.2667H11.2001C12.231 38.2667 13.0668 37.4309 13.0668 36.4V32.6667C13.0668 31.6359 12.231 30.8 11.2001 30.8ZM7.46676 36.4V32.6667H11.2001V36.4H7.46676Z" fill="#2B2831"/>
<path d="M20.5333 30.8H16.8C15.7692 30.8 14.9333 31.6359 14.9333 32.6667V36.4C14.9333 37.4309 15.7692 38.2667 16.8 38.2667H20.5333C21.5642 38.2667 22.4 37.4309 22.4 36.4V32.6667C22.4 31.6359 21.5642 30.8 20.5333 30.8ZM16.8 36.4V32.6667H20.5333V36.4H16.8Z" fill="#2B2831"/>
<path d="M41.0668 22.4001V21.4668C41.0668 20.4359 40.231 19.6001 39.2001 19.6001H35.4668C34.4359 19.6001 33.6001 20.4359 33.6001 21.4668V22.4001H35.4668V21.4668H39.2001V22.4001H41.0668Z" fill="#2B2831"/>
</svg>
