<svg width="56" height="51" viewBox="0 0 56 51" fill="none" xmlns="http://www.w3.org/2000/svg">
<path d="M21.4375 21.875C22.0412 21.875 22.5312 21.3849 22.5312 20.7812C22.5312 20.1776 22.0412 19.6875 21.4375 19.6875C20.8338 19.6875 20.3438 20.1776 20.3438 20.7812C20.3438 21.3849 20.8338 21.875 21.4375 21.875Z" fill="#2B2831"/>
<path d="M28 17.5C27.1523 17.5 26.2991 17.576 25.4647 17.726C24.87 17.8333 24.4748 18.4015 24.5816 18.9962C24.6888 19.5909 25.2571 19.9866 25.8518 19.8789C26.5589 19.752 27.2818 19.6875 28 19.6875C34.6339 19.6875 40.0312 25.0849 40.0312 31.7188C40.0312 38.3526 34.6339 43.75 28 43.75C21.3661 43.75 15.9688 38.3526 15.9688 31.7188C15.9688 29.1536 16.7681 26.705 18.2802 24.6371C18.6365 24.1492 18.5305 23.4648 18.0426 23.1085C17.5551 22.7517 16.8707 22.8581 16.5143 23.3456C14.7263 25.7911 13.7812 28.6862 13.7812 31.7188C13.7812 39.5591 20.1596 45.9375 28 45.9375C35.8404 45.9375 42.2188 39.5591 42.2188 31.7188C42.2188 23.8784 35.8404 17.5 28 17.5Z" fill="#2B2831"/>
<path d="M54.391 32.6566L51.625 28.9839V20.7812C51.625 14.1474 46.2276 8.75 39.5938 8.75H31.7047L32.4344 6.56079C34.2164 6.52917 35.6562 5.07056 35.6562 3.28125C35.6562 1.47186 34.1844 0 32.375 0C30.5656 0 29.0938 1.47186 29.0938 3.28125C29.0938 4.33099 29.5898 5.26666 30.3597 5.8678L29.3992 8.75H26.6008L25.6403 5.8678C26.4102 5.26666 26.9062 4.33099 26.9062 3.28125C26.9062 1.47186 25.4344 0 23.625 0C21.8156 0 20.3438 1.47186 20.3438 3.28125C20.3438 5.07056 21.7836 6.52917 23.5656 6.56079L24.2953 8.75H16.4062C9.7724 8.75 4.375 14.1474 4.375 20.7812V29.0233L1.61243 32.6519C1.60986 32.6557 1.60687 32.6595 1.60388 32.6634C0.539612 34.1002 0 35.6225 0 37.1875C0 40.8422 3.07831 44.2187 8.66711 46.695C13.9329 49.0278 20.7988 50.3125 28 50.3125C35.2012 50.3125 42.0671 49.0278 47.3329 46.695C52.9217 44.2187 56 40.8422 56 37.1875C56 35.6225 55.4604 34.1002 54.391 32.6566ZM32.375 2.1875C32.9783 2.1875 33.4688 2.67798 33.4688 3.28125C33.4688 3.88452 32.9783 4.375 32.375 4.375C31.7717 4.375 31.2812 3.88452 31.2812 3.28125C31.2812 2.67798 31.7717 2.1875 32.375 2.1875ZM22.5312 3.28125C22.5312 2.67798 23.0217 2.1875 23.625 2.1875C24.2283 2.1875 24.7188 2.67798 24.7188 3.28125C24.7188 3.88452 24.2283 4.375 23.625 4.375C23.0217 4.375 22.5312 3.88452 22.5312 3.28125ZM16.4062 10.9375H25.8044C25.8069 10.9375 25.8095 10.9379 25.8121 10.9379C25.8151 10.9379 25.8176 10.9375 25.8202 10.9375H30.1798C30.1824 10.9375 30.1849 10.9379 30.1879 10.9379C30.1905 10.9379 30.1931 10.9375 30.1956 10.9375H39.5938C45.0215 10.9375 49.4375 15.3535 49.4375 20.7812V25.8074C49.1047 25.2203 48.8005 24.6171 48.5313 23.9993C47.9293 22.6197 47.4893 21.1679 47.2231 19.6841C46.5425 15.8837 43.2458 13.125 39.3835 13.125H16.0867C15.3715 13.125 14.6614 13.2245 13.9756 13.4215C12.6495 13.8026 11.4583 14.5969 10.5308 15.718C9.6626 16.7681 9.06403 18.0524 8.79999 19.4324C8.38043 21.6208 7.61823 23.7442 6.5625 25.7048V20.7812C6.5625 15.3535 10.9785 10.9375 16.4062 10.9375ZM46.4468 44.6951C41.5262 46.8749 34.8026 48.125 28 48.125C21.1974 48.125 14.4738 46.8749 9.55322 44.6951C4.87231 42.6208 2.1875 39.8847 2.1875 37.1875C2.1875 36.1036 2.58099 35.0214 3.35773 33.9712L6.41083 29.9594L6.46039 29.8953C8.69958 26.9541 10.2518 23.4785 10.9486 19.8439C11.1439 18.824 11.5822 17.8794 12.2167 17.1121C12.8622 16.3319 13.6791 15.7829 14.5798 15.524C15.0685 15.3834 15.5757 15.3125 16.0871 15.3125H39.384C42.185 15.3125 44.5763 17.3129 45.0698 20.0695C45.3663 21.722 45.8563 23.3383 46.5262 24.8734C47.1957 26.4089 48.0464 27.8676 49.0564 29.2095L52.6384 33.9652C53.4173 35.0175 53.8125 36.1014 53.8125 37.1875C53.8125 39.8847 51.1277 42.6208 46.4468 44.6951Z" fill="#2B2831"/>
</svg>
