<svg width="56" height="56" viewBox="0 0 56 56" fill="none" xmlns="http://www.w3.org/2000/svg">
<g clip-path="url(#clip0_1_300)">
<path d="M47.2132 9.20931C45.4799 8.99013 43.7858 8.60561 42.179 8.06685C41.7492 7.92287 41.2843 8.15444 41.1403 8.58382C40.9963 9.01363 41.2279 9.47847 41.6573 9.62246C43.3667 10.1958 45.1667 10.6043 47.0077 10.8371C49.7686 11.1866 51.739 13.7347 51.3998 16.5169C50.955 20.1656 50.1407 25.6117 48.7872 30.8361C47.3128 36.5266 45.5824 40.4859 43.644 42.6042C39.6633 46.954 34.6727 50.8095 31.1872 53.2777C29.3556 54.5748 26.8946 54.5748 25.0635 53.2777C21.578 50.8095 16.5873 46.954 12.6066 42.6042C10.6682 40.4859 8.93744 36.5266 7.46344 30.8361C6.10992 25.6117 5.29559 20.1656 4.8504 16.5169C4.51159 13.7347 6.48163 11.1866 9.24293 10.8371C17.2021 9.83053 22.4773 5.83149 25.5014 2.65406C26.1905 1.9303 27.1224 1.53125 28.1251 1.53125C29.1279 1.53125 30.0597 1.9303 30.7493 2.65406C32.9278 4.94325 35.446 6.80989 38.2338 8.20229C38.6388 8.4048 39.1318 8.24031 39.3344 7.83486C39.5364 7.4294 39.372 6.93678 38.9669 6.73469C36.3496 5.42732 33.9848 3.6739 31.9374 1.52314C30.9355 0.470399 29.5816 -0.109375 28.1251 -0.109375C26.6686 -0.109375 25.3147 0.470399 24.3128 1.52314C21.4724 4.50746 16.5168 8.26338 9.03699 9.20931C5.38232 9.67159 2.77355 13.0392 3.22173 16.7156C3.98565 22.9816 6.31158 38.1557 11.3963 43.7121C15.4747 48.1687 20.5641 52.1019 24.115 54.6167C25.3142 55.4661 26.7195 55.8907 28.1251 55.8907C29.5303 55.8903 30.936 55.4661 32.1352 54.6167C35.6861 52.1019 40.7755 48.1687 44.854 43.7121C49.9391 38.1557 52.2646 22.9816 53.0285 16.7156C53.4767 13.0392 50.8679 9.67159 47.2132 9.20931Z" fill="#2B2831"/>
<path d="M26.2743 7.59639C22.1244 11.1874 17.2799 13.5377 11.8756 14.5819C10.229 14.9002 9.11734 16.4571 9.34463 18.1267C9.72702 20.9342 10.5089 26.1846 11.4467 29.8043C13.1561 36.4035 14.8091 38.9162 15.6423 39.8262C18.3809 42.8186 23.4626 46.8172 26.2478 48.9342C26.8007 49.3542 27.4629 49.564 28.1251 49.564C28.7874 49.564 29.4496 49.3542 30.0025 48.9342C32.7877 46.8172 37.8694 42.8186 40.608 39.8262C41.4411 38.9162 43.0942 36.4035 44.8036 29.8043C45.7418 26.1838 46.5232 20.9338 46.9061 18.1267C47.1334 16.4571 46.0212 14.9002 44.3746 14.5819C38.9704 13.5377 34.1258 11.1874 29.976 7.59639C28.9207 6.68336 27.3296 6.68336 26.2743 7.59639ZM45.2804 17.905C44.9027 20.6766 44.1324 25.8539 43.2155 29.3928C41.4873 36.0639 39.8565 38.2172 39.398 38.7188C36.647 41.7245 31.2167 45.9504 29.0095 47.6277C28.4887 48.0238 27.7615 48.0238 27.2407 47.6277C25.0336 45.9504 19.6033 41.724 16.8526 38.7188C16.3938 38.2172 14.763 36.0639 13.0348 29.3928C12.1183 25.8548 11.348 20.677 10.9703 17.905C10.8601 17.0979 11.3946 16.346 12.1867 16.1926C17.8772 15.0933 22.9781 12.6187 27.348 8.83712C27.5693 8.64528 27.8474 8.54915 28.1251 8.54915C28.4028 8.54915 28.681 8.64528 28.9023 8.83712C33.2722 12.6187 38.3731 15.0933 44.0636 16.1926C44.8557 16.346 45.3902 17.0979 45.2804 17.905Z" fill="#2B2831"/>
<path d="M23.5759 25.4916C22.9589 24.9892 20.8765 23.9518 19.3854 25.9218C17.8948 27.8915 19.1987 29.6098 19.8157 30.1123L22.1946 32.0477C22.5458 32.3335 23.0627 32.281 23.3486 31.9294C23.6344 31.5777 23.5814 31.0612 23.2302 30.7749L20.8513 28.8395C20.5745 28.6139 19.9695 27.8795 20.6582 26.9571C21.3469 26.0351 22.2634 26.5384 22.5402 26.7639L27.466 30.772C27.7911 31.0364 28.2632 31.0133 28.561 30.7181L35.7691 23.5775C36.2933 23.058 37.1418 23.0623 37.6614 23.5865C38.1805 24.1103 38.1762 24.9593 37.6524 25.4784L29.0669 33.984C28.3871 34.6394 27.6386 34.3664 27.281 34.0712L25.918 32.9624C25.5664 32.6766 25.0499 32.7296 24.7636 33.0808C24.4778 33.432 24.5308 33.949 24.8824 34.2348L26.2453 35.3439C26.7747 35.7746 27.442 36.0121 28.1248 36.0121C28.9156 36.0121 29.6603 35.7058 30.2217 35.1495L38.8068 26.6443C39.9736 25.4882 39.9826 23.5985 38.8265 22.4317C37.6708 21.2653 35.781 21.2563 34.6142 22.412L27.9295 29.0343L23.5759 25.4916Z" fill="#2B2831"/>
</g>
<defs>
<clipPath id="clip0_1_300">
<rect width="56" height="56" fill="white"/>
</clipPath>
</defs>
</svg>
