<svg width="56" height="56" viewBox="0 0 56 56" fill="none" xmlns="http://www.w3.org/2000/svg">
<path d="M13.0668 36.8667C9.97838 36.8667 7.4668 39.3783 7.4668 42.4667C7.4668 45.5551 9.97838 48.0667 13.0668 48.0667C16.1552 48.0667 18.6668 45.5551 18.6668 42.4667C18.6668 39.3783 16.1551 36.8667 13.0668 36.8667ZM13.0668 46.2C11.0078 46.2 9.3335 44.5256 9.3335 42.4667C9.3335 40.4077 11.0079 38.7334 13.0668 38.7334C15.1257 38.7334 16.8001 40.4078 16.8001 42.4667C16.8001 44.5256 15.1257 46.2 13.0668 46.2Z" fill="#2B2831"/>
<path d="M44.8 36.8667C41.7115 36.8667 39.2 39.3783 39.2 42.4667C39.2 45.5551 41.7115 48.0667 44.8 48.0667C47.8884 48.0667 50.3999 45.5551 50.3999 42.4667C50.3999 39.3783 47.8884 36.8667 44.8 36.8667ZM44.8 46.2C42.741 46.2 41.0667 44.5256 41.0667 42.4667C41.0667 40.4077 42.7411 38.7334 44.8 38.7334C46.8589 38.7334 48.5332 40.4078 48.5332 42.4667C48.5332 44.5256 46.8589 46.2 44.8 46.2Z" fill="#2B2831"/>
<path d="M55.8517 31.6951L47.4517 18.6284C47.28 18.3614 46.9841 18.2 46.6667 18.2H36.4001C35.884 18.2 35.4668 18.6181 35.4668 19.1332V42.4665C35.4668 42.9827 35.884 43.3998 36.4001 43.3998H40.1334V41.5331H37.3334V20.0667H46.1571L54.1334 32.4744V41.5334H49.4667V43.4H55.0667C55.5828 43.4 56 42.9828 56 42.4667V32.2C56.0001 32.0217 55.9488 31.8452 55.8517 31.6951Z" fill="#2B2831"/>
<path d="M41.0668 30.3334V23.8001H48.5335V21.9333H40.1335C39.6174 21.9333 39.2002 22.3515 39.2002 22.8666V31.2667C39.2002 31.7828 39.6174 32.2 40.1335 32.2H54.1335V30.3332H41.0668V30.3334Z" fill="#2B2831"/>
<path d="M36.4 11.6667H0.933297C0.418141 11.6667 0 12.0849 0 12.6V42.4667C0 42.9829 0.418141 43.4 0.933297 43.4H8.4V41.5333H1.8667V13.5333H35.4667V41.5333H17.7333V43.4H36.4C36.9161 43.4 37.3333 42.9829 37.3333 42.4667V12.6C37.3333 12.0849 36.9161 11.6667 36.4 11.6667Z" fill="#2B2831"/>
<path d="M6.53335 37.8H0.93335V39.6667H6.53335V37.8Z" fill="#2B2831"/>
<path d="M35.4668 37.8H19.6001V39.6667H35.4668V37.8Z" fill="#2B2831"/>
<path d="M55.0665 37.8H51.3333V39.6667H55.0665V37.8Z" fill="#2B2831"/>
<path d="M36.4001 15.3999H3.7334V17.2666H36.4001V15.3999Z" fill="#2B2831"/>
<path d="M14 41.5334H12.1333V43.4001H14V41.5334Z" fill="#2B2831"/>
<path d="M45.7334 41.5334H43.8667V43.4001H45.7334V41.5334Z" fill="#2B2831"/>
<path d="M16.8001 7.93335H3.7334V9.80005H16.8001V7.93335Z" fill="#2B2831"/>
<path d="M1.8667 7.93335H0V9.80005H1.8667V7.93335Z" fill="#2B2831"/>
</svg>
