<svg width="56" height="56" viewBox="0 0 56 56" fill="none" xmlns="http://www.w3.org/2000/svg">
<g clip-path="url(#clip0_1_348)">
<path d="M4.51079 29.1629C4.57271 29.1629 4.6356 29.1557 4.6985 29.1411C5.13967 29.0378 5.41358 28.5964 5.31032 28.1553C5.2332 27.8259 5.07283 27.1406 5.29818 26.8459C5.45876 26.6359 5.88538 26.5084 6.49927 26.4869C8.937 26.4013 9.68457 25.2748 10.4074 24.1854C10.7948 23.6017 11.1952 22.9982 11.9245 22.433C12.6427 21.8766 12.9505 21.8662 13.0004 21.869C13.0457 21.9171 13.3664 22.3282 13.2479 24.1363C13.1857 25.0847 13.3688 25.7816 13.8077 26.2666C14.4217 26.9451 15.316 26.9756 16.0346 27.0002C16.358 27.0113 16.6634 27.0218 16.8848 27.0835C17.5826 27.2778 18.1948 27.2164 18.6866 27.1671C18.9897 27.1366 19.3032 27.1052 19.3697 27.178C19.6974 27.5355 20.0716 27.709 20.4823 27.6998C21.2564 27.6784 21.7809 27.039 22.575 26.071C22.6476 25.9825 22.723 25.8907 22.8013 25.7958C22.8443 25.7437 22.8754 25.7161 22.8929 25.7026C23.0062 25.7279 23.2578 25.8809 23.4281 25.9844C24.0347 26.3531 24.9513 26.9103 26.093 26.4211C27.3496 25.8827 27.6746 25.4836 28.29 24.632C28.5127 24.3238 28.7899 23.9402 29.2119 23.4372C29.955 22.5512 31.0303 22.2936 31.4741 22.4988C31.5443 22.5313 31.7581 22.6301 31.657 23.222C31.5125 24.0681 31.6756 24.7048 32.1416 25.1144C32.9491 25.824 34.2081 25.4374 35.1274 25.1551C35.3376 25.0905 35.576 25.0173 35.6801 25.0017C35.7598 24.9946 35.999 25.0529 36.1577 25.0921C36.9531 25.2885 38.6081 25.6966 39.4294 23.3498C39.9837 21.7662 40.3894 21.7066 41.5941 21.5297C41.722 21.5109 41.8545 21.4914 41.9919 21.4694C44.6636 21.0419 45.1627 19.2926 45.5637 17.8868C45.6776 17.4877 45.7851 17.1107 45.9348 16.7656C46.179 16.2019 46.6302 15.9126 47.2013 15.5463C47.9349 15.0758 48.8479 14.4904 49.2325 13.1823C49.4171 12.5551 49.9454 12.1955 50.2294 12.103C50.2211 12.263 50.168 12.5483 49.9926 12.9789C49.3754 14.4936 49.2485 15.3298 49.5398 15.9618C49.8066 16.5405 50.3405 16.7174 50.6596 16.8231C50.7827 16.8639 50.899 16.9024 50.9552 16.9411C50.9552 16.9411 50.9602 16.9455 50.9694 16.9557C51.2705 17.2943 51.7891 17.3244 52.1278 17.0232C52.4662 16.722 52.4964 16.2034 52.1951 15.865C52.1018 15.7601 52.0009 15.6697 51.8945 15.596C51.639 15.4191 51.382 15.334 51.1757 15.2656C51.1311 15.2509 51.0771 15.2329 51.0323 15.2165C51.0348 15.0547 51.0962 14.6187 51.512 13.598C51.9915 12.4214 51.99 11.5311 51.5082 10.9519C51.1516 10.5232 50.5886 10.3517 49.9639 10.4807C49.0923 10.6609 48.0205 11.4879 47.6583 12.7194C47.4463 13.4398 46.9721 13.7441 46.3155 14.1652C45.639 14.599 44.8723 15.0907 44.4292 16.1133C44.2367 16.5572 44.1092 17.0044 43.9858 17.4368C43.6164 18.7316 43.3725 19.587 41.7326 19.8494C41.6024 19.8703 41.4769 19.8886 41.3557 19.9064C40.0224 20.1022 38.7629 20.287 37.8806 22.8079C37.5522 23.7465 37.32 23.6891 36.5507 23.4991C36.1951 23.4114 35.8275 23.3207 35.4387 23.3788C35.2114 23.4129 34.9491 23.4933 34.6456 23.5865C34.3367 23.6814 33.5501 23.9225 33.2514 23.8756C33.2438 23.8148 33.2403 23.6972 33.2743 23.4981C33.47 22.3524 33.0546 21.4222 32.1633 21.0095C30.9287 20.438 29.0798 21.0412 27.9547 22.3827C27.4949 22.9311 27.1984 23.3412 26.9603 23.6708C26.4581 24.3655 26.3388 24.5306 25.4468 24.9129C25.1148 25.0552 24.8498 24.9284 24.2806 24.5823C23.7175 24.24 22.5463 23.5279 21.5364 24.7505C21.4568 24.8469 21.3802 24.9402 21.3065 25.0301C21.0278 25.3699 20.6951 25.7755 20.4828 25.971C19.8765 25.3985 19.1294 25.4735 18.523 25.5342C18.1129 25.5753 17.7258 25.6142 17.3251 25.5026C16.9151 25.3884 16.496 25.3741 16.0907 25.3602C15.6602 25.3455 15.1722 25.3288 15.0243 25.1653C14.9684 25.1035 14.8428 24.89 14.8853 24.2435C14.9732 22.9023 14.9532 21.0464 13.7688 20.417C12.6292 19.8115 11.3422 20.8083 10.9195 21.1359C9.97707 21.8663 9.45769 22.6491 9.04027 23.2781C8.3929 24.2536 8.0364 24.7909 6.44173 24.8468C5.29588 24.8871 4.47272 25.2242 3.9948 25.8489C3.29843 26.7595 3.57825 27.9547 3.71269 28.5292C3.80119 28.9075 4.13832 29.1629 4.51079 29.1629ZM54.3728 24.0261C54.1419 23.7401 53.9155 23.4823 53.6966 23.2329C52.7028 22.1008 52.4058 21.6755 52.6936 20.969C52.7591 20.8086 52.8169 20.6366 52.8654 20.4581C52.984 20.0209 52.7259 19.5701 52.2887 19.4513C51.8518 19.3328 51.4006 19.5907 51.282 20.028C51.2509 20.1423 51.2147 20.2504 51.1743 20.3495C50.4794 22.055 51.488 23.2041 52.4635 24.3153C52.6714 24.5522 52.8866 24.7972 53.0963 25.0569C53.818 25.9504 54.298 27.4115 54.3615 28.1078C52.6643 27.6666 51.7168 26.8797 51.5432 25.7656L51.4978 25.4697C51.2978 24.155 51.091 22.7956 49.9385 22.5076C49.2145 22.3268 48.2806 22.5671 47.6671 23.0924C47.128 23.5542 46.8666 24.1987 46.931 24.907C46.951 25.1277 46.9807 25.3593 47.0121 25.6044C47.1218 26.4601 47.2875 27.753 46.8102 28.0795C45.6298 28.8872 45.5031 30.1433 45.3689 31.4732C45.3399 31.761 45.31 32.0585 45.2688 32.3664C45.1519 33.2443 45.467 33.7102 45.7521 33.9464C46.4703 34.5415 47.4999 34.2012 48.3271 33.9275C48.5112 33.8667 48.6849 33.8092 48.813 33.7771C49.1103 33.7028 49.5296 34.2276 50.131 35.43C50.3068 35.7818 50.5021 36.0835 50.6744 36.3497C51.2434 37.2289 51.6928 37.9232 51.1877 40.2937C50.9673 41.3274 50.6474 41.6655 50.5448 41.7207C50.4667 41.6699 50.3247 41.4363 50.4109 41.1562C50.7752 39.9725 50.7664 39.0541 50.3847 38.4266C50.1361 38.0179 49.7495 37.7556 49.2667 37.668C48.7792 37.5796 48.4722 37.647 48.1339 37.9168C48.0484 37.985 47.8211 38.1663 46.6753 38.3619C45.3891 38.5816 45.1403 38.3775 44.5387 37.8845C44.2654 37.6605 43.9253 37.3817 43.4535 37.1096C42.6542 36.6487 42.0745 36.7736 41.7286 36.9597C40.7158 37.5048 40.5731 39.0557 40.424 41.541C40.403 41.8908 40.3279 42.1348 40.2127 42.228C39.9516 42.4391 39.1203 42.3124 38.4521 42.2108C37.6592 42.0899 36.7604 41.9532 35.9398 42.1408C34.8235 42.396 34.0173 42.1056 33.3693 41.8721C32.9842 41.7334 32.6517 41.6137 32.2964 41.6137C31.4392 41.6137 31.2023 42.4462 31.1011 42.8017C31.0659 42.9255 31.0019 43.1504 30.9482 43.2222C30.9077 43.2284 30.7575 43.2381 30.4303 43.123C28.7702 42.5397 27.7785 43.1618 27.1223 43.5733C26.7687 43.7952 26.5576 43.9207 26.3322 43.9207C25.5933 43.9207 23.824 43.733 23.3543 41.995C22.8832 40.2522 21.5255 40.1196 20.7961 40.0483C20.7161 40.0405 20.6198 40.0311 20.5391 40.0201C20.2462 38.3124 18.4699 38.2296 16.2422 38.126C14.7709 38.0575 14.0932 38.4538 13.9022 39.494C13.8955 39.5299 13.8873 39.5751 13.8799 39.6065C13.8514 39.6209 13.7955 39.6444 13.6981 39.6687C12.6631 39.9273 11.5989 38.6193 11.4705 38.2225C11.2519 37.5469 10.4902 36.4837 7.84497 36.9562C6.37227 37.2191 6.27688 38.6585 6.22569 39.4318C6.21814 39.5455 6.2084 39.6928 6.19451 39.8146C5.19754 39.9014 4.73668 40.944 4.42503 41.6901C4.20494 40.9366 3.76377 39.9255 2.42179 39.1838C2.07546 38.9923 1.65836 38.6768 1.63834 38.2601C1.62762 38.0344 1.73056 37.841 1.80965 37.746C2.41435 37.7613 4.20286 37.7061 4.94802 36.5774C5.26065 36.1037 5.49322 35.2847 4.8254 34.0722C4.49176 33.4666 4.37931 32.8431 4.48159 32.1664C4.5493 31.7183 4.24093 31.3002 3.79298 31.2325C3.34525 31.1652 2.92695 31.4732 2.85924 31.9211C2.70325 32.9533 2.88122 33.9434 3.38824 34.8639C3.59466 35.2387 3.66587 35.5412 3.5788 35.6733C3.34777 36.0232 2.26033 36.1522 1.76906 36.1033C0.999513 36.0266 0.337709 36.775 0.105804 37.5185C-0.0351987 37.9708 -0.342144 39.531 1.62817 40.6199C2.60469 41.1596 2.77577 41.8376 2.94128 42.4932C3.07276 43.014 3.27141 43.8011 4.11469 43.9699C5.16549 44.18 5.61573 43.0988 5.91371 42.3834C6.03043 42.1035 6.24155 41.5969 6.39152 41.4545C6.83137 41.4813 7.12989 41.3138 7.30448 41.1653C7.78218 40.759 7.82506 40.1115 7.86291 39.5402C7.91607 38.7381 7.98619 38.5977 8.13343 38.5714C9.32183 38.3592 9.85346 38.5547 9.90936 38.7276C10.2731 39.8516 12.081 41.764 14.096 41.2604C15.3015 40.9592 15.4463 40.1695 15.516 39.79C15.5163 39.7884 15.5165 39.7867 15.5169 39.7851C15.62 39.767 15.8171 39.7487 16.1659 39.7649C17.2051 39.8132 18.1048 39.8659 18.5908 40.0219C18.9072 40.1234 18.9146 40.1977 18.9325 40.3773C19.0474 41.526 20.1207 41.6308 20.6366 41.6811C21.3184 41.7476 21.6019 41.7996 21.7703 42.4228C22.5574 45.3349 25.461 45.5613 26.3322 45.5613C27.0407 45.5613 27.5694 45.2296 27.9942 44.9631C28.5831 44.5937 28.972 44.3497 29.8863 44.671C30.6234 44.9298 31.2196 44.9326 31.7089 44.6793C32.3154 44.3652 32.5284 43.7674 32.6487 43.3571C32.7055 43.377 32.7619 43.3973 32.8132 43.4158C33.5726 43.6893 34.7202 44.1023 36.3054 43.7403C36.8222 43.6222 37.5252 43.7292 38.2052 43.8328C39.2944 43.9985 40.4204 44.1698 41.2442 43.5039C41.7363 43.106 42.0114 42.4786 42.0618 41.6392C42.1195 40.6758 42.224 38.9346 42.4872 38.4575C42.5233 38.4723 42.5716 38.4953 42.6334 38.5309C42.9889 38.736 43.248 38.9483 43.4986 39.1537C44.362 39.8612 45.0683 40.3007 46.9513 39.9795C48.172 39.7711 48.6837 39.5345 49.0008 39.3161C49.0512 39.4513 49.0917 39.8636 48.8425 40.6738C48.6059 41.4428 48.8037 42.2957 49.3469 42.8467C49.7954 43.3015 50.4085 43.4722 50.9882 43.3029C51.5893 43.1275 52.3901 42.5222 52.7921 40.6359C53.4387 37.6017 52.7335 36.5121 52.0515 35.4584C51.888 35.2056 51.7334 34.9668 51.5982 34.6964C51.0486 33.5971 50.1282 31.7576 48.4148 32.1855C48.2275 32.2323 48.0254 32.2992 47.8115 32.3698C47.5813 32.446 47.1579 32.586 46.8898 32.6258C46.8912 32.6124 46.8928 32.5983 46.8949 32.5833C46.9394 32.2494 46.9707 31.9385 47.0011 31.6378C47.1256 30.4039 47.2087 29.7947 47.7364 29.4337C49.0421 28.5403 48.8093 26.7229 48.6392 25.3958C48.6097 25.166 48.582 24.949 48.5645 24.7583C48.5483 24.5797 48.599 24.4541 48.7339 24.3385C48.9692 24.137 49.3324 24.0748 49.4979 24.0923C49.6617 24.3143 49.7893 25.1533 49.875 25.7163L49.9213 26.018C50.1281 27.3456 51.0704 29.0793 54.385 29.7997C54.9576 29.9245 55.4724 29.7186 55.7619 29.2495C56.5226 28.0177 55.2947 25.1674 54.3728 24.0261Z" fill="#2B2831"/>
</g>
<defs>
<clipPath id="clip0_1_348">
<rect width="56" height="56" fill="white"/>
</clipPath>
</defs>
</svg>
