<svg width="56" height="56" viewBox="0 0 56 56" fill="none" xmlns="http://www.w3.org/2000/svg">
<g clip-path="url(#clip0_1_394)">
<path d="M38.0646 16.9692C37.4598 16.9692 36.9688 17.458 36.9688 18.0626C36.9688 18.6667 37.4598 19.1563 38.0646 19.1563C38.6708 19.1563 39.1605 18.6667 39.1605 18.0626C39.1605 17.458 38.6708 16.9692 38.0646 16.9692Z" fill="#2B2831"/>
<path d="M18.1528 36.8418C17.5466 36.8418 17.0569 37.3318 17.0569 37.9355C17.0569 38.5405 17.5466 39.0293 18.1528 39.0293C18.7577 39.0293 19.2487 38.5405 19.2487 37.9355C19.2487 37.3318 18.7577 36.8418 18.1528 36.8418Z" fill="#2B2831"/>
<path d="M54.8006 6.72881C54.4307 6.64293 54.042 6.75444 53.7749 7.02361L49.2317 11.5939H47.0536L44.6559 9.11455V6.91039L49.1341 2.37431C49.3991 2.106 49.5069 1.7202 49.4192 1.35319C49.3318 0.986616 49.0613 0.690961 48.7034 0.570478C47.5784 0.191937 46.4012 0.000103766 45.2038 0.000103766C41.6345 0.000103766 38.3918 1.66124 36.307 4.55754C34.3558 7.26885 33.7544 10.5915 34.6161 13.7715L26.5437 21.8281L13.0951 8.37499V5.7346C13.0951 5.35051 12.8931 4.99419 12.563 4.7968L4.81429 0.156049C4.38278 -0.102435 3.83098 -0.0345032 3.47568 0.320539L0.376361 3.41337C0.0210529 3.76842 -0.0470121 4.31914 0.21155 4.7498L4.86052 12.4834C5.0583 12.8128 5.41489 13.014 5.79973 13.0145L8.44443 13.0153L21.8943 26.4684L13.8528 34.4943C10.6666 33.6346 7.33569 34.2358 4.6178 36.1845C1.71754 38.2639 0.0544434 41.4994 0.0544434 45.0618C0.0544434 46.2564 0.246652 47.4317 0.625933 48.5541C0.74708 48.9134 1.04631 49.1847 1.41617 49.2702C1.78646 49.356 2.17473 49.2445 2.44229 48.9754L6.98509 44.4055H9.17516L11.6705 46.8959V49.0817L7.09169 53.6157C6.822 53.8827 6.71027 54.2702 6.79631 54.6398C6.88193 55.0089 7.15376 55.3076 7.51378 55.4285C8.63835 55.807 9.816 55.9989 11.0129 55.9989C14.5823 55.9989 17.8237 54.3386 19.9076 51.444C21.8601 48.7314 22.4624 45.4074 21.6011 42.2274L28.0596 35.7816L29.539 37.3854L28.8601 38.0626C28.432 38.4899 28.432 39.1824 28.8601 39.6097C29.2882 40.0365 29.9817 40.0365 30.4102 39.6097L31.0249 38.9962L44.9059 54.0446C44.9162 54.0557 44.9269 54.0664 44.9376 54.0771C47.5061 56.6406 51.6675 56.6414 54.2372 54.0767C56.7997 51.5179 56.7997 47.3544 54.2372 44.7956C54.2261 44.7845 54.2146 44.7738 54.203 44.7631L39.1015 30.9357L39.7094 30.329C40.1375 29.9022 40.1375 29.2097 39.7094 28.7824C39.2813 28.3552 38.5878 28.3552 38.1593 28.7824L37.4851 29.4557L35.8751 27.9809L42.3648 21.5038C43.2873 21.7499 44.2394 21.8747 45.2038 21.8747C51.2467 21.8747 56.1623 16.9682 56.1623 10.9376C56.1623 9.7426 55.9701 8.56767 55.5908 7.44487C55.4697 7.08556 55.1705 6.81426 54.8006 6.72881ZM9.67474 11.1491C9.46926 10.9436 9.19057 10.8389 8.89948 10.8389L6.42088 10.8381L2.53133 4.35673L4.42045 2.4713L10.9033 6.35411V8.82787C10.9033 9.11754 11.0185 9.39525 11.2235 9.60033L24.9941 23.3752L23.444 24.9218L9.67474 11.1491ZM37.5502 32.4841L52.703 46.358C54.3956 48.0653 54.3905 50.8296 52.6872 52.5305C50.98 54.2343 48.2163 54.2395 46.5022 52.5454L32.5758 37.4478L37.5502 32.4841ZM35.9337 31.0037L31.09 35.8371L29.6105 34.2332L34.3237 29.5288L35.9337 31.0037ZM45.2038 19.6872C44.2454 19.6872 43.3027 19.5338 42.4029 19.2313C42.0086 19.0993 41.5729 19.201 41.2783 19.4945C35.7843 24.9778 23.9461 36.7924 19.587 41.1435C19.2925 41.4374 19.1901 41.8724 19.3233 42.2663C20.2342 44.9661 19.7985 47.8457 18.1272 50.1678C16.4607 52.483 13.8674 53.8114 11.0129 53.8114C10.6923 53.8114 10.3734 53.7938 10.0574 53.7601L13.5382 50.3131C13.7454 50.108 13.8622 49.8286 13.8622 49.5368V46.4426C13.8622 46.1525 13.7467 45.8744 13.5412 45.6693L10.4038 42.538C10.1983 42.333 9.9196 42.2176 9.62893 42.2176H6.52876C6.23638 42.2176 5.95641 42.3342 5.75051 42.541L2.29717 46.015C2.26292 45.6997 2.2458 45.3814 2.2458 45.0613C2.2458 42.212 3.57628 39.6242 5.89648 37.9609C8.22268 36.293 11.1084 35.8576 13.8139 36.7672C14.2081 36.9001 14.6439 36.798 14.9384 36.504C14.9988 36.4442 36.6144 14.8704 36.6298 14.855C36.9243 14.5611 37.0262 14.1266 36.8935 13.7327C35.9821 11.0329 36.417 8.1541 38.087 5.83373C39.7548 3.51634 42.3485 2.18761 45.2034 2.18761C45.5339 2.18761 45.8622 2.20598 46.1876 2.24187L42.7792 5.69444C42.5771 5.89909 42.4641 6.17467 42.4641 6.46178V9.5559C42.4641 9.83959 42.5741 10.1117 42.7715 10.3155L45.7993 13.4468C46.0056 13.6605 46.2903 13.7809 46.5878 13.7809H49.688C49.98 13.7809 50.2599 13.6647 50.4658 13.4575L53.9192 9.984C53.9534 10.2993 53.9705 10.6176 53.9705 10.9376C53.9705 15.7621 50.0378 19.6872 45.2038 19.6872Z" fill="#2B2831"/>
<path d="M34.1906 20.3827L20.477 34.0695C20.0493 34.4963 20.0493 35.1889 20.477 35.6162C20.9051 36.0434 21.599 36.0434 22.0271 35.6162L35.7407 21.9293C36.1688 21.5025 36.1688 20.8099 35.7407 20.3827C35.3126 19.9554 34.6187 19.9554 34.1906 20.3827Z" fill="#2B2831"/>
<path d="M48.039 49.4375C48.4671 49.8634 49.161 49.8634 49.5891 49.4349C50.0163 49.0072 50.015 48.3147 49.5865 47.8883L39.7085 38.0612C39.28 37.6348 38.5857 37.6361 38.1589 38.0637C37.7312 38.4918 37.7325 39.184 38.161 39.6104L48.039 49.4375Z" fill="#2B2831"/>
</g>
<defs>
<clipPath id="clip0_1_394">
<rect width="56" height="56" fill="white"/>
</clipPath>
</defs>
</svg>
