<svg width="22" height="24" viewBox="0 0 22 24" fill="none" xmlns="http://www.w3.org/2000/svg">
<path d="M20.2825 8.58468H19.7062V5.80404C19.7062 5.78671 19.7035 5.76924 19.7014 5.75151C19.7005 5.64121 19.6651 5.53278 19.5895 5.44686L14.962 0.160951C14.9606 0.159594 14.9592 0.159113 14.9583 0.157668C14.9307 0.126852 14.8986 0.101202 14.8645 0.0790529C14.8545 0.072312 14.8443 0.0666653 14.8338 0.0607123C14.8043 0.0447354 14.773 0.0312972 14.7409 0.0216236C14.7322 0.0193474 14.7243 0.0157581 14.7157 0.0134819C14.6807 0.00516514 14.6444 0 14.6077 0H3.23538C2.71611 0 2.29423 0.42236 2.29423 0.941194V8.58442H1.71802C0.975154 8.58442 0.372803 9.18655 0.372803 9.92968V16.925C0.372803 17.6674 0.975154 18.2702 1.71802 18.2702H2.29423V23.0588C2.29423 23.5777 2.71611 24 3.23538 24H18.7648C19.2836 24 19.7059 23.5777 19.7059 23.0588V18.2702H20.2822C21.0249 18.2702 21.6273 17.6678 21.6273 16.9251V9.92994C21.6274 9.1866 21.0253 8.58468 20.2825 8.58468ZM3.23538 0.941194H14.1371V5.75642C14.1371 6.01642 14.3479 6.22701 14.6077 6.22701H18.7648V8.58464H3.23538V0.941194ZM12.7698 13.7735C11.8452 13.4513 11.2418 12.9398 11.2418 12.1301C11.2418 11.1803 12.0346 10.4537 13.348 10.4537C13.9753 10.4537 14.438 10.5856 14.768 10.7344L14.4874 11.75C14.2646 11.6429 13.8682 11.4857 13.3232 11.4857C12.7781 11.4857 12.5139 11.7335 12.5139 12.0226C12.5139 12.3778 12.8278 12.5346 13.5461 12.8071C14.5286 13.1706 14.9911 13.6825 14.9911 14.4669C14.9911 15.4003 14.2726 16.1931 12.7448 16.1931C12.1091 16.1931 11.4815 16.0281 11.1676 15.8544L11.4234 14.814C11.7621 14.9872 12.2825 15.161 12.8191 15.161C13.3977 15.161 13.7028 14.9215 13.7028 14.558C13.703 14.2114 13.4388 14.0129 12.7698 13.7735ZM10.6399 15.0533V16.1107H7.16269V10.544H8.4267V15.0533H10.6399ZM3.12508 16.1107H1.68821L3.2985 13.2938L1.74577 10.5438H3.19117L3.67814 11.5597C3.84334 11.8983 3.9673 12.1705 4.09958 12.4848H4.11565C4.24815 12.1296 4.35539 11.8819 4.49537 11.5597L4.96619 10.5438H6.4031L4.83395 13.2605L6.48592 16.1102H5.03259L4.52855 15.1025C4.32243 14.7149 4.19019 14.4256 4.03322 14.1035H4.01681C3.90103 14.4256 3.76096 14.7149 3.58736 15.1025L3.12508 16.1107ZM18.7648 22.804H3.23538V18.2702H18.7648V22.804H18.7648ZM18.7733 16.1107L18.2694 15.103C18.063 14.715 17.9309 14.4261 17.7739 14.1039H17.7579C17.6421 14.4261 17.5015 14.715 17.3278 15.103L16.8659 16.1107H15.4286L17.0389 13.2938L15.4863 10.5438H16.9316L17.4192 11.5597C17.5842 11.8983 17.7078 12.1705 17.8402 12.4848H17.8567C17.9886 12.1296 18.0957 11.8819 18.2363 11.5597L18.7069 10.5438H20.1442L18.575 13.2605L20.2266 16.1102H18.7733V16.1107Z" fill="#219653"/>
</svg>
