<?xml version="1.0" standalone="no"?>
<!DOCTYPE svg PUBLIC "-//W3C//DTD SVG 20010904//EN"
 "http://www.w3.org/TR/2001/REC-SVG-20010904/DTD/svg10.dtd">
<svg version="1.0" xmlns="http://www.w3.org/2000/svg"
 width="522.000000pt" height="522.000000pt" viewBox="0 0 522.000000 522.000000"
 preserveAspectRatio="xMidYMid meet">
<metadata>
Created by potrace 1.14, written by Peter Selinger 2001-2017
</metadata>
<g transform="translate(0.000000,522.000000) scale(0.100000,-0.100000)"
fill="#000000" stroke="none">
<path d="M72 5190 c-18 -11 -41 -34 -52 -52 -20 -33 -20 -54 -20 -1656 0
-1798 -5 -1666 64 -1715 31 -22 34 -22 417 -22 l385 -1 0 1246 c1 1389 -5
1284 71 1331 l37 23 1240 2 c683 0 1244 2 1247 3 3 0 5 171 5 379 -1 393 -3
403 -45 442 -46 41 8 40 -1688 40 -1607 0 -1628 0 -1661 -20z"/>
<path d="M1813 3462 c-16 -7 -40 -30 -53 -50 l-25 -36 0 -815 0 -816 810 -1
c853 -1 839 -1 882 42 40 39 40 50 39 884 l-1 805 -811 0 c-668 1 -817 -2
-841 -13z"/>
<path d="M4338 3476 c0 -1 -2 -562 -3 -1247 l-1 -1246 -23 -37 c-47 -75 58
-70 -1331 -70 l-1245 -1 0 -385 0 -385 23 -30 c13 -16 36 -38 50 -47 26 -17
116 -18 1657 -18 1583 0 1631 1 1661 19 59 36 71 65 73 181 2 58 2 112 2 120
0 8 0 44 0 80 1 36 1 72 0 80 0 8 0 44 0 80 1 36 1 72 0 80 0 8 0 44 0 80 1
36 1 72 0 80 0 8 0 44 0 80 1 36 1 72 0 80 0 8 0 44 0 80 1 36 1 72 0 80 0 8
0 44 0 80 1 36 1 72 0 80 0 8 0 44 0 80 1 36 1 72 0 80 0 8 0 44 0 80 1 36 1
72 0 80 0 8 0 44 0 80 1 36 1 72 0 80 0 8 0 44 0 80 1 36 1 72 0 80 0 8 0 44
0 80 1 36 1 72 0 80 0 8 0 44 0 80 1 36 1 72 0 80 0 8 0 44 0 80 1 36 1 72 0
80 0 8 0 44 0 80 1 36 1 72 0 80 0 8 0 44 0 80 1 36 1 72 0 80 0 8 0 44 0 80
1 36 1 72 0 80 0 8 0 44 0 80 1 36 1 72 0 80 0 8 0 44 0 80 1 36 1 72 0 80 -2
35 -1 109 1 117 4 18 -23 91 -39 105 -49 42 -54 43 -445 43 -208 1 -379 1
-380 1z"/>
</g>
</svg>
